<?xml version="1.0" standalone="no"?>
<!DOCTYPE svg PUBLIC "-//W3C//DTD SVG 20010904//EN"
 "http://www.w3.org/TR/2001/REC-SVG-20010904/DTD/svg10.dtd">
<svg version="1.0" xmlns="http://www.w3.org/2000/svg"
 width="200.000000pt" height="200.000000pt" viewBox="0 0 200.000000 200.000000"
 preserveAspectRatio="xMidYMid meet">
<metadata>
Created by potrace 1.11, written by Peter Selinger 2001-2013
</metadata>
<g transform="translate(0.000000,200.000000) scale(0.100000,-0.100000)"
fill="#000000" stroke="none">
<path d="M1485 1341 c-37 -16 -81 -58 -102 -96 -5 -7 -26 -16 -47 -19 -53 -8
-100 -39 -118 -77 -13 -26 -15 -47 -9 -106 1 -16 51 -73 63 -73 6 0 -1 9 -14
20 -31 24 -48 83 -36 127 13 48 69 87 124 86 38 -1 46 3 58 26 35 66 90 101
164 102 27 1 59 -4 73 -11 34 -18 80 -61 89 -86 8 -20 12 -21 54 -11 40 9 50
7 92 -14 140 -72 105 -279 -51 -296 l-47 -6 5 -129 c3 -115 2 -128 -12 -122
-9 4 -27 8 -41 11 -20 3 -18 1 9 -12 19 -8 40 -23 47 -33 15 -19 16 2 15 178
l-1 86 32 2 c117 9 193 153 139 264 -33 70 -104 110 -179 102 -27 -3 -38 2
-65 33 -61 69 -160 92 -242 54z"/>
<path d="M65 902 c-27 -14 -40 -50 -31 -84 11 -44 22 -50 95 -56 59 -4 71 -8
69 -21 -3 -13 -19 -17 -81 -19 l-78 -3 3 -27 c3 -27 3 -27 87 -28 99 -1 132
17 133 74 2 52 -30 76 -105 82 -46 4 -62 9 -62 20 0 12 17 16 78 18 76 3 77 3
77 30 l0 27 -81 0 c-45 0 -91 -5 -104 -13z"/>
<path d="M316 905 c-34 -17 -50 -61 -35 -97 14 -35 43 -48 108 -48 52 0 62 -5
54 -26 -4 -10 -25 -14 -78 -14 -75 0 -89 -8 -76 -41 5 -13 22 -16 94 -15 82 1
90 3 109 26 15 18 18 33 14 59 -8 52 -27 64 -101 69 -55 4 -65 7 -65 23 0 16
10 19 78 21 72 3 77 4 78 26 1 14 -5 22 -15 23 -81 5 -147 3 -165 -6z"/>
<path d="M610 907 c-19 -9 -33 -35 -57 -102 -49 -136 -49 -140 -14 -143 27 -2
31 2 49 50 11 29 25 72 32 96 7 23 16 42 20 42 4 0 22 -42 41 -92 30 -82 37
-93 59 -94 14 -1 28 0 31 2 4 2 -6 39 -21 81 -15 43 -32 95 -39 115 -9 27 -20
39 -43 47 -17 6 -31 11 -32 11 -1 0 -12 -6 -26 -13z"/>
<path d="M853 907 c-39 -17 -47 -75 -16 -109 16 -18 48 -23 77 -12 27 10 18
27 -10 20 -33 -9 -54 9 -54 44 0 30 21 44 51 35 19 -6 35 10 19 20 -19 12 -45
13 -67 2z"/>
<path d="M1029 907 c-1 -7 -2 -29 -3 -49 -4 -80 -56 -72 -56 8 0 32 -4 44 -15
44 -21 0 -21 -93 1 -114 20 -20 68 -21 84 -1 18 22 21 113 4 119 -8 3 -15 0
-15 -7z"/>
<path d="M1514 910 c-16 -6 -19 -16 -18 -51 2 -24 3 -52 3 -61 1 -10 8 -18 16
-18 8 0 14 3 14 8 -1 4 -1 16 0 27 2 18 4 17 24 -7 34 -42 64 -36 32 6 -11 14
-12 23 -4 32 6 7 9 23 7 35 -3 26 -42 40 -74 29z m46 -40 c0 -13 -7 -20 -19
-20 -14 0 -18 5 -14 20 3 11 12 20 19 20 8 0 14 -9 14 -20z"/>
<path d="M1080 845 l0 -65 41 0 c28 0 39 4 36 13 -2 6 -14 11 -25 9 -20 -3
-22 1 -22 52 0 43 -3 56 -15 56 -12 0 -15 -14 -15 -65z"/>
<path d="M1177 903 c-2 -5 -4 -34 -5 -65 0 -48 2 -58 16 -58 14 0 17 11 17 65
0 44 -4 65 -12 65 -6 0 -14 -3 -16 -7z"/>
<path d="M1230 845 c0 -49 3 -65 14 -65 10 0 13 10 10 35 -1 19 1 35 5 35 5 0
21 -16 35 -35 15 -19 33 -35 39 -35 17 0 16 122 -1 128 -8 2 -12 -10 -12 -38
l0 -42 -32 40 c-47 59 -58 54 -58 -23z"/>
<path d="M1381 854 c-25 -66 -26 -74 -6 -74 8 0 15 7 15 15 0 10 10 15 30 15
20 0 30 -5 30 -15 0 -8 9 -15 19 -15 19 0 19 3 -5 62 -13 34 -24 63 -24 65 0
2 -8 3 -19 3 -13 0 -24 -16 -40 -56z m52 -4 c4 -15 0 -20 -13 -20 -13 0 -17 5
-13 20 3 11 9 20 13 20 4 0 10 -9 13 -20z"/>
<path d="M1600 903 c0 -5 9 -21 20 -38 11 -16 20 -42 20 -57 0 -18 5 -28 15
-28 10 0 15 10 15 28 0 15 11 44 25 65 25 36 25 37 5 37 -11 0 -20 -4 -20 -8
0 -5 -6 -17 -14 -27 -14 -19 -15 -19 -27 8 -11 24 -39 38 -39 20z"/>
<path d="M850 704 c0 -27 4 -43 10 -39 6 3 10 24 10 46 0 21 -4 39 -10 39 -5
0 -10 -21 -10 -46z"/>
<path d="M884 711 c1 -46 16 -69 16 -25 l0 29 25 -30 c13 -16 25 -28 26 -25 7
24 6 66 -1 79 -7 12 -10 9 -10 -14 l-1 -30 -20 28 c-28 37 -36 34 -35 -12z"/>
<path d="M973 734 c-4 -11 3 -24 18 -36 l24 -20 -23 5 c-14 3 -22 1 -19 -6 5
-17 21 -19 41 -4 18 13 18 15 -5 35 -19 19 -20 22 -5 22 9 0 14 5 11 10 -10
16 -35 12 -42 -6z"/>
<path d="M1030 740 c0 -5 5 -10 10 -10 6 0 10 -13 10 -29 0 -17 5 -33 10 -36
6 -4 10 7 10 26 0 19 7 37 18 45 15 12 13 13 -20 14 -21 0 -38 -4 -38 -10z"/>
<path d="M1108 735 c-9 -34 -8 -76 1 -71 12 8 19 49 11 72 -7 19 -7 19 -12 -1z"/>
<path d="M1130 741 c0 -6 6 -11 14 -11 9 0 13 -11 11 -34 -1 -24 2 -33 11 -29
7 3 11 16 9 34 -3 23 0 29 14 29 13 0 19 -7 19 -25 0 -14 2 -28 5 -31 10 -11
42 -11 55 -1 14 11 16 77 2 77 -5 0 -10 -16 -10 -36 0 -28 -3 -35 -17 -32 -12
2 -18 13 -18 33 -1 28 -3 30 -48 33 -29 2 -47 -1 -47 -7z"/>
<path d="M1290 740 c0 -5 5 -10 10 -10 6 0 10 -16 10 -36 0 -21 4 -33 10 -29
6 3 10 19 10 36 0 16 5 29 10 29 6 0 10 5 10 10 0 6 -13 10 -30 10 -16 0 -30
-4 -30 -10z"/>
<path d="M1360 707 c0 -38 3 -43 25 -45 14 -1 25 3 25 8 0 6 -7 10 -15 10 -8
0 -15 5 -15 10 0 6 7 10 16 10 8 0 12 5 9 10 -4 6 -11 8 -16 5 -5 -4 -9 1 -9
9 0 10 6 13 15 10 8 -4 15 -1 15 5 0 6 -11 11 -25 11 -23 0 -25 -4 -25 -43z"/>
<path d="M1678 673 c7 -3 16 -2 19 1 4 3 -2 6 -13 5 -11 0 -14 -3 -6 -6z"/>
</g>
</svg>
