<?xml version="1.0" standalone="no"?>
<!DOCTYPE svg PUBLIC "-//W3C//DTD SVG 20010904//EN"
 "http://www.w3.org/TR/2001/REC-SVG-20010904/DTD/svg10.dtd">
<svg version="1.0" xmlns="http://www.w3.org/2000/svg"
 width="867.000000pt" height="867.000000pt" viewBox="0 0 867.000000 867.000000"
 preserveAspectRatio="xMidYMid meet">
<metadata>
Created by potrace 1.11, written by Peter Selinger 2001-2013
</metadata>
<g transform="translate(0.000000,867.000000) scale(0.100000,-0.100000)"
fill="#000000" stroke="none">
<path d="M5810 8663 c-14 -2 -52 -13 -84 -25 -213 -74 -350 -280 -333 -498 19
-235 174 -410 405 -457 327 -67 639 231 584 560 -46 273 -304 463 -572 420z"/>
<path d="M6560 7744 c-202 -40 -350 -121 -494 -274 -71 -76 -154 -200 -185
-278 -8 -18 -17 -31 -21 -30 -4 2 -36 45 -70 96 -79 119 -222 268 -316 331
-88 59 -164 89 -264 103 -135 20 -280 -25 -415 -127 -63 -47 -86 -79 -78 -104
8 -24 114 -130 146 -147 33 -18 57 -12 100 25 62 53 106 73 172 79 56 4 71 1
128 -26 226 -105 474 -521 647 -1082 47 -154 124 -450 118 -456 -3 -2 -31 28
-63 67 -85 102 -251 257 -370 347 -397 298 -849 456 -1345 469 -300 8 -532
-25 -812 -117 -745 -245 -1330 -866 -1529 -1624 -60 -230 -73 -338 -74 -601 0
-251 6 -306 52 -515 131 -597 480 -1105 997 -1451 137 -93 358 -204 500 -254
73 -25 93 -35 75 -38 -13 -3 -51 -10 -84 -16 -74 -13 -161 -55 -250 -120 -90
-66 -118 -106 -123 -180 -8 -109 49 -194 169 -251 l58 -27 -49 -48 c-67 -66
-101 -133 -108 -210 -9 -118 43 -209 160 -278 l56 -34 -49 -39 c-126 -99 -170
-233 -115 -350 71 -153 297 -235 726 -263 91 -6 184 -14 208 -17 l43 -5 -25
-29 c-34 -41 -49 -94 -43 -153 4 -42 10 -56 41 -84 24 -22 46 -33 66 -33 32 0
44 9 207 162 143 132 274 201 412 214 141 14 293 97 339 186 48 93 39 219 -21
284 -41 44 -84 54 -163 38 -86 -17 -157 -54 -244 -125 -83 -69 -166 -111 -268
-136 -54 -14 -109 -17 -277 -15 -318 3 -540 26 -690 73 l-70 22 157 77 c223
110 270 121 558 131 345 12 561 39 797 100 218 56 293 120 293 251 0 77 -30
131 -88 160 -42 21 -60 23 -172 22 -219 -2 -456 -47 -850 -162 -199 -58 -237
-66 -330 -69 -106 -5 -245 16 -344 50 l-38 13 63 41 c108 69 151 91 231 117
74 25 86 26 315 26 648 0 1079 76 1216 215 91 93 84 245 -14 317 -119 89 -715
3 -1369 -198 -75 -23 -96 -25 -175 -20 -49 4 -128 15 -175 25 l-85 18 100 32
c366 119 665 186 865 194 74 4 189 15 255 27 806 138 1484 687 1790 1450 169
420 211 914 115 1355 -11 50 -36 205 -55 345 -79 577 -184 1020 -336 1428
l-50 133 16 83 c34 185 103 323 220 441 61 63 98 91 155 119 95 46 204 69 285
61 l62 -7 26 123 c17 75 23 127 18 132 -10 10 -220 19 -261 11z m-2154 -1355
c156 -15 289 -43 444 -95 747 -248 1266 -874 1365 -1647 19 -151 19 -430 0
-567 -62 -436 -256 -822 -570 -1135 -282 -281 -636 -471 -1027 -550 -151 -30
-248 -39 -268 -26 -13 9 -16 70 -21 403 -6 384 -14 496 -50 657 -5 24 -7 51
-4 60 3 9 50 44 104 79 131 84 256 186 370 301 100 100 232 271 280 361 92
173 74 348 -43 428 -66 44 -128 44 -214 1 -109 -54 -141 -98 -351 -479 -56
-102 -127 -221 -158 -264 l-56 -79 -58 209 c-99 361 -144 457 -243 519 -68 41
-168 47 -245 15 -65 -28 -140 -109 -180 -193 -98 -206 -51 -428 133 -625 103
-110 215 -167 349 -178 108 -8 114 -10 126 -46 20 -62 50 -265 60 -409 6 -79
11 -276 11 -437 l0 -293 -25 -24 c-31 -31 -75 -32 -240 -5 -229 37 -384 86
-582 181 -620 302 -1050 900 -1133 1582 -19 149 -8 484 20 622 82 414 281 779
581 1070 131 127 241 210 398 302 361 211 798 304 1227 262z"/>
</g>
</svg>
